<?xml version="1.0" standalone="no"?>
<!DOCTYPE svg PUBLIC "-//W3C//DTD SVG 20010904//EN"
 "http://www.w3.org/TR/2001/REC-SVG-20010904/DTD/svg10.dtd">
<svg version="1.0" xmlns="http://www.w3.org/2000/svg"
 width="512.000000pt" height="512.000000pt" viewBox="0 0 512.000000 512.000000"
 preserveAspectRatio="xMidYMid meet">

<g transform="translate(0.000000,512.000000) scale(0.100000,-0.100000)"
fill="#000000" stroke="none">
<path d="M2426 5009 c-112 -18 -256 -120 -327 -231 -19 -29 -53 -99 -76 -157
l-42 -106 -276 -3 -275 -2 0 68 c0 59 -3 73 -24 95 -13 14 -35 29 -48 32 -12
3 -195 4 -405 3 l-383 -3 -27 -27 c-24 -25 -27 -36 -31 -117 l-4 -90 -37 -12
c-167 -53 -341 -219 -415 -396 -53 -130 -51 -51 -51 -1713 0 -1471 1 -1548 18
-1610 73 -258 272 -450 534 -517 64 -17 192 -18 2003 -18 1811 0 1939 1 2003
18 262 67 461 259 534 517 17 62 18 140 18 1615 0 1467 -1 1553 -18 1615 -55
198 -186 359 -368 455 -108 56 -198 75 -395 82 l-172 6 -37 99 c-21 55 -54
125 -75 156 -80 124 -211 219 -334 241 -71 13 -1213 13 -1290 0z m789 -924
c196 -16 415 -96 596 -217 491 -327 708 -952 525 -1510 -119 -364 -383 -657
-726 -808 -151 -66 -267 -96 -435 -109 -540 -44 -1054 249 -1295 738 -96 196
-133 358 -133 586 0 175 19 298 69 437 179 498 625 844 1143 887 94 8 113 8
256 -4z m-2405 -117 c127 -65 147 -239 38 -332 -46 -40 -108 -57 -167 -46
-165 30 -225 233 -103 348 61 56 155 69 232 30z"/>
<path d="M2882 3874 c-371 -62 -706 -330 -848 -677 -56 -138 -75 -227 -81
-378 -7 -166 6 -268 53 -409 94 -282 285 -506 549 -642 278 -143 582 -167 877
-68 173 58 294 134 434 274 167 168 259 337 310 571 23 109 23 331 0 440 -101
466 -455 808 -921 889 -108 19 -260 19 -373 0z"/>
</g>
</svg>
