<?xml version="1.0"?><svg xmlns="http://www.w3.org/2000/svg" xmlns:xlink="http://www.w3.org/1999/xlink" version="1.1" viewBox="0 0 24 24" style="enable-background:new 0 0 24 24;" xml:space="preserve"><style type="text/css">
	.st0{display:none;}
	.st1{display:inline;}
	.st2{opacity:0.2;fill:none;stroke:#000000;stroke-width:0.05;stroke-miterlimit:10;}
</style><g id="grid_system" class="st0"/><g id="Layer_2"><g><path d="M21.754883,13.343262c-0.113281-0.148438-0.238281-0.295898-0.380859-0.443359    c-0.027344-0.031738-0.054688-0.0625-0.083984-0.091797c-0.013672-0.015625-0.02832-0.030762-0.042969-0.04541    c-0.114258-0.114746-0.243164-0.22998-0.332031-0.299316c-0.125977-0.112305-0.25293-0.210449-0.311523-0.245605    c-0.126953-0.101562-0.266602-0.202148-0.34375-0.247559c-0.015198-0.011414-0.034546-0.022522-0.050354-0.033691    c-0.302063-0.846436-0.671265-1.653687-1.129333-2.383789l-0.260742-0.42041C18.364746,8.400696,17.72644,7.882996,17,7.611267V7    c0-2.756836-2.243164-5-5-5S7,4.243164,7,7v0.611816c-0.72937,0.273376-1.365845,0.79071-1.819336,1.520996L4.922852,9.54834    C3.682617,11.522461,3,13.969727,3,16.439941c0,0.996582,0.310547,1.967285,0.875,2.733398    c0.595703,0.809082,1.43457,1.323242,2.362305,1.447754C8.118164,20.872559,10.057617,21,12,21    c0.178528,0,0.359619-0.003906,0.540649-0.005371C13.676819,22.27124,15.270569,23,17,23c3.308594,0,6-2.691406,6-6    C23,15.678711,22.556641,14.378418,21.754883,13.343262z M12,4c1.654297,0,3,1.345703,3,3v0.227295    c-1.997925-0.268066-4.005554-0.267883-6-0.000122V7C9,5.345703,10.345703,4,12,4z M6.50293,18.638672    c-0.384766-0.051758-0.746094-0.283203-1.017578-0.651367C5.171875,17.5625,5,17.013184,5,16.439941    c0-2.098633,0.574219-4.168457,1.619141-5.83252l0.260742-0.419434c0.037903-0.061157,0.082275-0.112183,0.124329-0.167053    C7.016052,10.562927,7.454712,11,8,11c0.552734,0,1-0.447754,1-1V9.247437c0.996948-0.147034,1.996521-0.245972,2.998047-0.245972    c1.001221,0,2.002502,0.09906,3.001953,0.246338V10c0,0.552246,0.447266,1,1,1c0.54541,0,0.984253-0.437195,0.99585-0.97937    c0.041992,0.05481,0.086304,0.105713,0.124268,0.16687l0.263672,0.423828c0.085938,0.138672,0.169922,0.279785,0.25,0.42334    c-0.042664-0.004089-0.086365-0.007568-0.130676-0.010864c-0.003479-0.000305-0.00647-0.001099-0.009949-0.001343    C17.329102,11.010742,17.164062,11,17,11c-2.857178,0-5.249878,2.008606-5.850769,4.687012    c-0.004395,0.019226-0.010437,0.037659-0.014648,0.056946c-0.035889,0.167664-0.061829,0.338806-0.083374,0.511353    c-0.004761,0.037842-0.013123,0.074524-0.017212,0.112549C11.012146,16.575745,11,16.786438,11,17    c0,0.334778,0.02948,0.664795,0.083252,0.988953c0.018677,0.112488,0.055847,0.219604,0.080872,0.330505    c0.047119,0.208801,0.092041,0.41803,0.161377,0.619995c0.006165,0.017944,0.007996,0.037292,0.014343,0.055176    C9.707031,18.969727,8.083008,18.850098,6.50293,18.638672z M17,21c-1.270508,0-2.436523-0.585938-3.198242-1.60791    c-0.005676-0.007141-0.012085-0.015076-0.018188-0.022766c-0.080627-0.108704-0.145142-0.225403-0.213684-0.34021    c-0.041016-0.068726-0.089905-0.133667-0.126526-0.204285c-0.060852-0.117249-0.105286-0.240967-0.153809-0.363098    c-0.02887-0.072693-0.066101-0.142212-0.090515-0.216431c-0.043396-0.131653-0.069458-0.268555-0.098816-0.40448    c-0.014954-0.069458-0.038696-0.136414-0.049927-0.206787C13.01709,17.426086,13,17.214355,13,17c0-2.205566,1.793945-4,4-4    c0.115234,0,0.231445,0.008789,0.344727,0.01709c0.071289,0.005371,0.138672,0.006836,0.205078,0.023438    c0.032227,0.007812,0.064453,0.01416,0.097656,0.019043c0.275391,0.039551,0.536133,0.108887,0.81543,0.22168    c0.09375,0.033691,0.1875,0.073242,0.357422,0.159668l0.111328,0.052734c0,0,0.002747,0.001404,0.003479,0.00177    c0.044067,0.024292,0.092407,0.049805,0.186951,0.117371c0.080078,0.05127,0.161133,0.11084,0.302734,0.21875    c0.053711,0.035645,0.106445,0.077148,0.198242,0.157715c0.047852,0.038086,0.095703,0.079102,0.140625,0.121094    c0.033203,0.041016,0.070312,0.080078,0.110352,0.115723c0.012695,0.01416,0.025391,0.027832,0.039062,0.041016    c0.09668,0.09668,0.178711,0.193359,0.255859,0.29541C20.712891,15.26416,21,16.106934,21,17C21,19.205566,19.206055,21,17,21z"/><path d="M18,16.585938V15c0-0.552246-0.447266-1-1-1s-1,0.447754-1,1v2c0,0.265137,0.105469,0.519531,0.292969,0.707031    l1.436523,1.436523c0.195312,0.195312,0.451172,0.292969,0.707031,0.292969s0.511719-0.097656,0.707031-0.292969    c0.390625-0.390625,0.390625-1.023438,0-1.414062L18,16.585938z"/></g></g></svg>