<?xml version="1.0" ?><!DOCTYPE svg  PUBLIC '-//W3C//DTD SVG 1.1//EN'  'http://www.w3.org/Graphics/SVG/1.1/DTD/svg11.dtd'><svg height="8.4666mm" style="shape-rendering:geometricPrecision; text-rendering:geometricPrecision; image-rendering:optimizeQuality; fill-rule:evenodd; clip-rule:evenodd" version="1.1" viewBox="0 0 846.66 846.66" width="8.4666mm" xml:space="preserve" xmlns="http://www.w3.org/2000/svg" xmlns:xlink="http://www.w3.org/1999/xlink"><defs><style type="text/css">
   <![CDATA[
    .fil0 {fill:black;fill-rule:nonzero}
   ]]>
  </style></defs><g id="Layer_x0020_1"><path class="fil0" d="M539.27 495.8c0,-2.02 0.29,-3.98 0.84,-5.83l-7.56 7.56c-8.08,8.08 -21.18,8.08 -29.25,0l-76.03 -76.02c-8.07,-8.08 -8.07,-21.18 0,-29.25l12.3 -12.3 -17.39 0c-11.42,0 -20.69,-9.26 -20.69,-20.68l0 -83.32c-18.51,-9 -38.01,-15.55 -58.2,-19.59 -10.12,-1.34 -17.93,-10.01 -17.93,-20.5l0 -62.01 -60.49 0 -0.04 62.01c0.01,9.72 -6.87,18.39 -16.77,20.28 -114.6,22.32 -197.1,123 -197.1,239.65l0 124.34c162.77,0 325.54,0 488.31,0l0 -124.34zm-407.09 -39.91l188.05 0c11.42,0 20.68,9.26 20.68,20.68l0 67.97c0,11.42 -9.26,20.69 -20.68,20.69l-188.05 0c-11.42,0 -20.68,-9.27 -20.68,-20.69l0 -67.97c0,-11.42 9.26,-20.68 20.68,-20.68zm167.36 41.37l-146.67 0 0 26.6 146.67 0 0 -26.6zm88.76 164.25l0 76.74c0,11.42 -9.26,20.68 -20.69,20.68l-144.99 0c-11.43,0 -20.69,-9.26 -20.69,-20.68l0 -76.74 -171.66 0c-11.42,0 -20.68,-9.26 -20.68,-20.68l0 -145.03c0,-129.97 88.17,-243.88 213.91,-276.4l0 -66.23c0,-11.42 9.26,-20.68 20.68,-20.68l101.87 0c11.42,0 20.68,9.26 20.68,20.68l0 66.24c14.98,3.88 29.66,8.99 43.82,15.25 3.31,-2.26 7.32,-3.58 11.63,-3.58l17.39 0 -12.3 -12.3c-8.07,-8.07 -8.07,-21.17 0,-29.25l76.03 -76.02c8.07,-8.08 21.17,-8.08 29.25,0l12.29 12.29 0 -17.38c0,-11.43 9.27,-20.69 20.69,-20.69l107.51 0c11.42,0 20.68,9.26 20.68,20.69l0 17.38 12.3 -12.29c8.08,-8.08 21.18,-8.08 29.25,0l76.03 76.02c8.07,8.08 8.07,21.18 0,29.25l-12.3 12.3 17.39 0c11.42,0 20.68,9.26 20.68,20.69l0 107.51c0,11.42 -9.26,20.68 -20.68,20.68l-17.39 0 12.3 12.3c8.07,8.07 8.07,21.17 0,29.25l-76.03 76.02c-8.07,8.08 -21.17,8.08 -29.25,0l-12.3 -12.29 0 17.39c0,11.42 -9.26,20.68 -20.68,20.68l-92.4 0 0 117.52c0,11.42 -9.26,20.68 -20.68,20.68l-171.66 0zm-145 0l0 56.05 103.63 0 0 -56.05 -103.63 0zm375.98 -433.63c42.88,0 77.64,34.76 77.64,77.64 0,42.88 -34.76,77.64 -77.64,77.64 -42.87,0 -77.64,-34.76 -77.64,-77.64 0,-42.88 34.77,-77.64 77.64,-77.64zm0 41.37c-20.03,0 -36.27,16.24 -36.27,36.27 0,20.03 16.24,36.27 36.27,36.27 20.04,0 36.27,-16.24 36.27,-36.27 0,-20.03 -16.24,-36.27 -36.27,-36.27zm33.07 -140.15l-66.14 0 0 46.64c0,18.18 -22.18,27.75 -35.31,14.63l-32.98 -32.98 -46.77 46.77 32.98 32.98c12.85,12.85 3.93,35.31 -14.62,35.31l-46.65 0 0 66.14 46.65 0c18.17,0.01 27.75,22.19 14.62,35.31l-32.98 32.98 46.77 46.77 32.98 -32.98c12.85,-12.85 35.31,-3.93 35.31,14.63l0 46.64 66.14 0 0 -46.64c0.01,-18.18 22.19,-27.75 35.31,-14.63l32.99 32.98 46.77 -46.77 -32.98 -32.98c-12.86,-12.85 -3.94,-35.31 14.62,-35.31l46.64 0 0 -66.14 -46.64 0c-18.17,-0.01 -27.75,-22.19 -14.62,-35.31l32.98 -32.98 -46.77 -46.77 -32.99 32.98c-12.85,12.85 -35.31,3.93 -35.31,-14.63l0 -46.64z"/></g></svg>