<?xml version="1.0" standalone="no"?>
<!DOCTYPE svg PUBLIC "-//W3C//DTD SVG 20010904//EN"
 "http://www.w3.org/TR/2001/REC-SVG-20010904/DTD/svg10.dtd">
<svg version="1.0" xmlns="http://www.w3.org/2000/svg"
 width="512.000000pt" height="512.000000pt" viewBox="0 0 512.000000 512.000000"
 preserveAspectRatio="xMidYMid meet">

<g transform="translate(0.000000,512.000000) scale(0.100000,-0.100000)"
fill="#000000" stroke="none">
<path d="M2265 5100 c-686 -50 -1146 -187 -1490 -446 -105 -79 -292 -275 -364
-384 -194 -291 -312 -655 -370 -1145 -47 -387 -40 -879 18 -1266 83 -558 243
-926 530 -1222 167 -172 322 -281 529 -372 741 -326 2053 -338 2821 -26 244
99 410 211 591 398 317 325 481 747 557 1423 24 220 25 782 0 1000 -60 534
-176 906 -375 1205 -76 115 -259 308 -369 392 -311 233 -735 372 -1313 428
-198 19 -599 27 -765 15z m560 -250 c489 -31 874 -118 1152 -258 109 -56 244
-152 335 -240 298 -287 449 -660 525 -1297 25 -212 25 -776 0 -990 -32 -269
-75 -476 -137 -665 -45 -137 -158 -360 -234 -461 -121 -160 -313 -321 -488
-410 -212 -107 -499 -186 -835 -229 -737 -95 -1544 -2 -2001 229 -106 54 -237
147 -330 236 -300 285 -452 661 -529 1300 -25 213 -25 777 0 990 76 631 229
1012 518 1290 176 169 353 271 613 355 387 124 922 181 1411 150z"/>
<path d="M2415 4273 c-286 -45 -539 -230 -668 -488 -255 -511 37 -1132 597
-1265 96 -23 272 -28 366 -10 363 69 642 346 716 711 20 100 15 299 -11 394
-39 142 -129 297 -236 404 -110 109 -263 197 -409 236 -64 17 -291 29 -355 18z
m289 -263 c188 -48 338 -170 426 -348 40 -82 60 -170 60 -272 0 -181 -58 -318
-190 -451 -132 -134 -265 -189 -452 -190 -117 0 -197 19 -299 72 -303 157
-430 530 -285 836 67 141 172 246 312 314 128 61 286 75 428 39z"/>
<path d="M3085 2473 c-11 -3 -61 -22 -112 -43 -158 -66 -247 -84 -418 -85
-177 0 -253 14 -425 82 -105 41 -120 45 -186 41 -66 -3 -85 -9 -206 -70 -322
-162 -523 -387 -588 -662 -26 -106 -28 -409 -5 -501 48 -184 203 -337 386
-380 96 -22 1962 -22 2058 0 183 43 338 196 386 380 23 92 21 395 -5 501 -38
161 -115 292 -249 425 -99 98 -195 166 -336 237 -146 73 -227 93 -300 75z
m129 -270 c251 -111 446 -303 505 -497 18 -57 21 -94 21 -235 0 -145 -3 -172
-21 -211 -25 -55 -80 -114 -134 -143 l-40 -22 -985 0 -985 0 -40 22 c-58 31
-105 81 -132 141 -24 50 -24 59 -21 235 4 201 14 243 80 356 41 69 157 186
239 242 82 55 227 129 255 129 12 0 46 -11 76 -24 313 -138 710 -139 1025 -2
43 19 82 35 87 35 5 1 36 -11 70 -26z"/>
</g>
</svg>
