<?xml version="1.0" standalone="no"?>
<!DOCTYPE svg PUBLIC "-//W3C//DTD SVG 20010904//EN"
 "http://www.w3.org/TR/2001/REC-SVG-20010904/DTD/svg10.dtd">
<svg version="1.0" xmlns="http://www.w3.org/2000/svg"
 width="512.000000pt" height="512.000000pt" viewBox="0 0 512.000000 512.000000"
 preserveAspectRatio="xMidYMid meet">

<g transform="translate(0.000000,512.000000) scale(0.100000,-0.100000)"
fill="#000000" stroke="none">
<path d="M274 5106 c-133 -32 -234 -137 -263 -274 -6 -31 -11 -153 -11 -290 0
-206 2 -242 18 -271 35 -70 110 -97 177 -65 72 34 75 48 75 321 0 166 4 250
12 268 23 51 46 55 310 55 274 0 288 3 322 75 32 67 5 142 -65 177 -30 16 -64
18 -279 17 -158 0 -263 -5 -296 -13z"/>
<path d="M4271 5102 c-70 -35 -97 -110 -65 -177 34 -72 48 -75 322 -75 264 0
287 -4 310 -55 8 -18 12 -102 12 -268 0 -273 3 -287 75 -321 67 -32 142 -5
177 65 16 30 18 65 18 274 0 261 -8 321 -53 397 -30 52 -91 109 -144 136 -67
34 -136 42 -381 42 -206 0 -242 -2 -271 -18z"/>
<path d="M2385 4749 c-278 -13 -469 -48 -725 -131 -69 -22 -208 -62 -310 -90
-286 -76 -444 -161 -595 -319 -128 -134 -207 -275 -257 -457 -17 -62 -21 -107
-22 -232 0 -162 9 -223 54 -343 l21 -57 1138 0 1138 0 125 50 c175 69 188 70
279 25 41 -21 85 -46 98 -56 23 -18 54 -19 674 -19 l650 0 -6 103 c-21 357
-226 688 -521 842 -68 35 -69 37 -92 101 -104 298 -403 480 -909 555 -115 17
-470 41 -550 37 -16 0 -102 -5 -190 -9z"/>
<path d="M700 2882 c0 -16 155 -159 219 -201 161 -109 363 -178 553 -188 212
-12 335 36 798 311 l145 86 -858 0 c-471 0 -857 -4 -857 -8z"/>
<path d="M3600 2858 c12 -18 51 -93 86 -167 52 -107 76 -145 122 -191 196
-196 503 -176 669 45 67 89 120 207 146 323 l5 22 -525 0 -525 0 22 -32z"/>
<path d="M3200 2321 c-79 -16 -146 -76 -169 -150 -14 -49 -14 -203 0 -252 45
-149 248 -200 362 -91 56 52 67 90 67 218 0 107 -2 120 -26 165 -31 56 -81 94
-144 108 -25 6 -47 10 -50 10 -3 -1 -21 -4 -40 -8z"/>
<path d="M1785 2303 c-47 -24 -86 -64 -106 -108 -22 -46 -27 -230 -8 -283 10
-30 12 -31 32 -17 29 20 70 19 97 -3 16 -13 24 -32 28 -70 l5 -52 50 0 c93 0
180 63 206 149 14 47 14 203 1 251 -13 49 -66 109 -114 131 -51 23 -149 24
-191 2z"/>
<path d="M4038 945 c-57 -32 -65 -99 -19 -146 33 -33 67 -37 111 -14 31 16 43
43 42 89 -2 60 -80 101 -134 71z"/>
<path d="M81 912 c-19 -9 -44 -30 -55 -45 -20 -27 -21 -44 -24 -270 -3 -255 4
-330 39 -400 28 -53 85 -114 137 -144 76 -45 136 -53 397 -53 209 0 244 2 274
18 70 35 97 110 65 177 -34 72 -48 75 -321 75 -166 0 -250 4 -268 12 -51 23
-55 46 -55 310 0 273 -4 288 -73 321 -45 22 -73 21 -116 -1z"/>
<path d="M4921 913 c-68 -34 -71 -49 -71 -321 0 -264 -4 -287 -55 -310 -18 -8
-102 -12 -268 -12 -273 0 -287 -3 -321 -75 -32 -67 -5 -142 65 -177 30 -16 65
-18 274 -18 261 0 321 8 397 53 52 30 109 91 136 144 34 67 42 136 42 381 0
206 -2 242 -18 271 -35 69 -115 98 -181 64z"/>
</g>
</svg>
